<svg id="Group_675" data-name="Group 675" xmlns="http://www.w3.org/2000/svg" width="17.157" height="17.156" viewBox="0 0 17.157 17.156">
  <g id="Group_674" data-name="Group 674" transform="translate(0 0)">
    <path id="Path_1095" data-name="Path 1095" d="M17.707,14.253l-3.473-2.316a1.014,1.014,0,0,0-1.357.22l-1.012,1.3a.432.432,0,0,1-.554.117l-.192-.106a11.629,11.629,0,0,1-3.031-2.38A11.676,11.676,0,0,1,5.708,8.058L5.6,7.866a.433.433,0,0,1,.114-.556L7.017,6.3a1.014,1.014,0,0,0,.221-1.357L4.921,1.468a1.008,1.008,0,0,0-1.359-.306L2.11,2.035a2.048,2.048,0,0,0-.934,1.212C.653,5.152,1.046,8.44,5.89,13.285c3.853,3.853,6.722,4.889,8.694,4.889A5.065,5.065,0,0,0,15.928,18a2.046,2.046,0,0,0,1.212-.934l.873-1.451A1.008,1.008,0,0,0,17.707,14.253Zm-.187,1.066-.871,1.452a1.478,1.478,0,0,1-.872.676c-1.759.483-4.832.083-9.482-4.567S1.245,5.157,1.727,3.4A1.48,1.48,0,0,1,2.4,2.525l1.452-.871a.437.437,0,0,1,.59.133L5.7,3.675,6.76,5.259a.44.44,0,0,1-.1.589l-1.3,1.011A1,1,0,0,0,5.1,8.143l.1.188a12.129,12.129,0,0,0,2.478,3.162,12.142,12.142,0,0,0,3.162,2.478l.188.1a1,1,0,0,0,1.284-.265l1.011-1.3a.44.44,0,0,1,.589-.1l3.472,2.316A.437.437,0,0,1,17.521,15.32Z" transform="translate(-1 -1.018)" fill="#fff"/>
    <path id="Path_1096" data-name="Path 1096" d="M282.914,69.9a4.866,4.866,0,0,1,4.861,4.861.286.286,0,0,0,.572,0,5.438,5.438,0,0,0-5.432-5.432.286.286,0,1,0,0,.572Z" transform="translate(-273.192 -67.035)" fill="#fff"/>
    <path id="Path_1097" data-name="Path 1097" d="M282.914,121.1a3.149,3.149,0,0,1,3.145,3.145.286.286,0,1,0,.572,0,3.721,3.721,0,0,0-3.717-3.717.286.286,0,1,0,0,.572Z" transform="translate(-273.192 -116.52)" fill="#fff"/>
    <path id="Path_1098" data-name="Path 1098" d="M282.914,172.3a1.431,1.431,0,0,1,1.43,1.43.286.286,0,0,0,.572,0,2,2,0,0,0-2-2,.286.286,0,1,0,0,.572Z" transform="translate(-273.192 -166.004)" fill="#fff"/>
  </g>
</svg>
