<svg id="whatsapp_1_" data-name="whatsapp (1)" xmlns="http://www.w3.org/2000/svg" width="15.216" height="15.216" viewBox="0 0 15.216 15.216">
  <g id="Group_676" data-name="Group 676">
    <path id="Path_1101" data-name="Path 1101" d="M7.608,0A7.609,7.609,0,0,0,1.152,11.635C.852,12.688.309,14.68.3,14.7a.293.293,0,0,0,.368.356l3.016-.928A7.609,7.609,0,1,0,7.608,0Zm0,14.631a7.005,7.005,0,0,1-3.725-1.068.293.293,0,0,0-.155-.044.3.3,0,0,0-.086.013l-2.633.811c.193-.706.541-1.969.743-2.672a.294.294,0,0,0-.036-.24,7.024,7.024,0,1,1,5.893,3.2Z" fill="#fff"/>
    <path id="Path_1102" data-name="Path 1102" d="M19.185,16.316c-.54-.3-1-.6-1.336-.82-.256-.167-.442-.288-.577-.356a.665.665,0,0,0-.777.055.293.293,0,0,0-.037.044,4.113,4.113,0,0,1-1.06,1.187,7.046,7.046,0,0,1-1.8-1.165,3.9,3.9,0,0,1-1.424-1.8c.531-.546.722-.89.722-1.281a8.281,8.281,0,0,0-1.11-2.255c-.171-.17-.555-.2-1.142-.08a.3.3,0,0,0-.15.08,3.817,3.817,0,0,0-.944,3.823c.868,2.256,3.1,4.879,5.936,5.305a6.155,6.155,0,0,0,.909.072,2.694,2.694,0,0,0,2.935-2.508A.291.291,0,0,0,19.185,16.316Zm-3.61,2.161c-3-.45-4.9-3.426-5.476-4.936a3.221,3.221,0,0,1,.753-3.136,2.207,2.207,0,0,1,.541-.037,10.509,10.509,0,0,1,.92,1.815c0,.154-.05.368-.646.964a.291.291,0,0,0-.086.207c0,1.532,3.232,3.658,3.8,3.658.5,0,1.147-.837,1.516-1.382a.278.278,0,0,1,.109.034c.105.053.288.172.519.323.3.2.71.464,1.188.738C18.5,17.768,17.893,18.825,15.575,18.477Z" transform="translate(-6.607 -6.915)" fill="#fff"/>
  </g>
</svg>
